<svg width="600" height="400" viewBox="0 0 600 400" xmlns="http://www.w3.org/2000/svg">
  <defs>
    <linearGradient id="projectGrad" x1="0%" y1="0%" x2="100%" y2="100%">
      <stop offset="0%" style="stop-color:#d97706;stop-opacity:1" />
      <stop offset="100%" style="stop-color:#b45309;stop-opacity:1" />
    </linearGradient>
  </defs>
  <rect width="600" height="400" fill="url(#projectGrad)" />
  <circle cx="550" cy="80" r="60" fill="rgba(255,255,255,0.05)" />
  <circle cx="80" cy="320" r="50" fill="rgba(255,255,255,0.05)" />
  <g transform="translate(180, 80)">
    <rect x="0" y="100" width="240" height="200" fill="rgba(255,255,255,0.1)" />
    <rect x="20" y="120" width="60" height="50" fill="rgba(255,255,255,0.15)" />
    <rect x="100" y="120" width="60" height="50" fill="rgba(255,255,255,0.15)" />
    <rect x="180" y="120" width="40" height="50" fill="rgba(255,255,255,0.15)" />
    <rect x="20" y="190" width="60" height="50" fill="rgba(255,255,255,0.15)" />
    <rect x="100" y="190" width="60" height="50" fill="rgba(255,255,255,0.15)" />
    <rect x="180" y="190" width="40" height="50" fill="rgba(255,255,255,0.15)" />
    <rect x="260" y="0" width="10" height="280" fill="rgba(255,255,255,0.2)" />
    <rect x="180" y="20" width="100" height="8" fill="rgba(255,255,255,0.2)" />
    <line x1="265" y1="28" x2="190" y2="100" stroke="rgba(255,255,255,0.15)" stroke-width="3" />
  </g>
  <rect x="150" y="350" width="300" height="12" rx="6" fill="rgba(255,255,255,0.2)" />
  <rect x="150" y="350" width="200" height="12" rx="6" fill="rgba(255,255,255,0.4)" />
</svg>
