<svg width="600" height="400" viewBox="0 0 600 400" xmlns="http://www.w3.org/2000/svg">
  <defs>
    <linearGradient id="blogGrad" x1="0%" y1="0%" x2="100%" y2="100%">
      <stop offset="0%" style="stop-color:#0891b2;stop-opacity:1" />
      <stop offset="100%" style="stop-color:#0e7490;stop-opacity:1" />
    </linearGradient>
  </defs>
  <rect width="600" height="400" fill="url(#blogGrad)" />
  <circle cx="540" cy="70" r="60" fill="rgba(255,255,255,0.05)" />
  <circle cx="60" cy="330" r="45" fill="rgba(255,255,255,0.05)" />
  <g transform="translate(180, 100)">
    <rect x="0" y="0" width="240" height="180" rx="8" fill="rgba(255,255,255,0.15)" />
    <rect x="20" y="20" width="200" height="12" rx="4" fill="rgba(255,255,255,0.25)" />
    <rect x="20" y="50" width="160" height="8" rx="3" fill="rgba(255,255,255,0.15)" />
    <rect x="20" y="70" width="180" height="8" rx="3" fill="rgba(255,255,255,0.15)" />
    <rect x="20" y="90" width="140" height="8" rx="3" fill="rgba(255,255,255,0.15)" />
    <rect x="20" y="120" width="200" height="8" rx="3" fill="rgba(255,255,255,0.12)" />
    <rect x="20" y="140" width="170" height="8" rx="3" fill="rgba(255,255,255,0.12)" />
  </g>
  <g transform="translate(260, 300)" fill="rgba(255,255,255,0.2)">
    <circle cx="0" cy="10" r="15" />
    <rect x="25" y="2" width="60" height="8" rx="4" />
    <rect x="25" y="14" width="40" height="6" rx="3" fill="rgba(255,255,255,0.15)" />
  </g>
</svg>
