<svg width="600" height="400" viewBox="0 0 600 400" xmlns="http://www.w3.org/2000/svg">
  <defs>
    <linearGradient id="sermonGrad" x1="0%" y1="0%" x2="100%" y2="100%">
      <stop offset="0%" style="stop-color:#1e40af;stop-opacity:1" />
      <stop offset="100%" style="stop-color:#0f172a;stop-opacity:1" />
    </linearGradient>
  </defs>
  <rect width="600" height="400" fill="url(#sermonGrad)" />
  <circle cx="500" cy="80" r="60" fill="rgba(255,255,255,0.05)" />
  <circle cx="520" cy="320" r="80" fill="rgba(255,255,255,0.03)" />
  <circle cx="100" cy="350" r="40" fill="rgba(255,255,255,0.05)" />
  <g fill="rgba(255,255,255,0.2)" transform="translate(250, 120)">
    <rect x="30" y="0" width="40" height="80" rx="20" />
    <path d="M10,60 Q10,120 50,120 Q90,120 90,60" fill="none" stroke="rgba(255,255,255,0.2)" stroke-width="8" />
    <line x1="50" y1="120" x2="50" y2="160" stroke="rgba(255,255,255,0.2)" stroke-width="8" />
    <line x1="25" y1="160" x2="75" y2="160" stroke="rgba(255,255,255,0.2)" stroke-width="8" />
  </g>
  <g stroke="rgba(255,255,255,0.1)" stroke-width="3" fill="none">
    <path d="M360,180 Q380,200 360,220" />
    <path d="M380,160 Q420,200 380,240" />
    <path d="M400,140 Q460,200 400,260" />
  </g>
</svg>
